<?xml version="1.0" encoding="utf-8"?>
<!-- Generator: Adobe Illustrator 23.0.4, SVG Export Plug-In . SVG Version: 6.00 Build 0)  -->
<svg version="1.1" id="Layer_1" xmlns="http://www.w3.org/2000/svg" xmlns:xlink="http://www.w3.org/1999/xlink" x="0px" y="0px"
	 viewBox="0 0 276.11 277.22" style="enable-background:new 0 0 276.11 277.22;" xml:space="preserve">
<style type="text/css">
	.st0{fill:#6CAD4C;stroke:#FFFFFF;stroke-miterlimit:10;}
	.st1{fill:#FFFFFF;}
</style>
<circle class="st0" cx="137.57" cy="136.76" r="134.44"/>
<g>
	<path class="st1" d="M118.02,138.21l-59.51-24.69V97.98l59.51-24.73v18.59l-36.17,13.94l36.17,13.95V138.21z"/>
	<path class="st1" d="M142.89,66.08h10.88l-19.27,79.35h-10.77L142.89,66.08z"/>
	<path class="st1" d="M159.11,119.73l36.17-13.95l-36.17-13.94V73.25l59.51,24.73v15.54l-59.51,24.69V119.73z"/>
</g>
<g>
	<path class="st1" d="M48.71,158.33h17.45l6.73,26.13l6.68-26.13h17.44v42.95H86.15v-32.75l-8.38,32.75h-9.84l-8.36-32.75v32.75
		H48.71V158.33z"/>
	<path class="st1" d="M105.46,158.33h35.57v9.17h-22.27v6.83h20.65v8.76h-20.65v8.47h22.91v9.73h-36.21V158.33z"/>
	<path class="st1" d="M145.8,158.33h40.34v10.61h-13.54v32.34h-13.27v-32.34H145.8V158.33z"/>
	<path class="st1" d="M214.48,194.19h-15.07l-2.09,7.09h-13.55l16.14-42.95h14.48l16.14,42.95h-13.9L214.48,194.19z M211.73,184.91
		l-4.74-15.44l-4.69,15.44H211.73z"/>
</g>
</svg>
