<?xml version="1.0" encoding="utf-8"?>
<!-- Generator: Adobe Illustrator 23.0.3, SVG Export Plug-In . SVG Version: 6.00 Build 0)  -->
<svg version="1.1" id="Layer_1" xmlns="http://www.w3.org/2000/svg" xmlns:xlink="http://www.w3.org/1999/xlink" x="0px" y="0px"
	 viewBox="0 0 520.9 56.7" style="enable-background:new 0 0 520.9 56.7;" xml:space="preserve">
<style type="text/css">
	.st0{fill:#006FFF;}
	.st1{fill:#BF25D6;}
</style>
<g>
	<path class="st0" d="M32.6,50.4L1.7,36.1v-7.2l30.9-14.4v10.1l-16.7,7.8l16.7,7.8V50.4z"/>
	<path class="st0" d="M61.2,1.6l-12,53.9H36.5l12-53.9H61.2z"/>
	<path class="st0" d="M96,36.1L65.1,50.4V40.3l16.7-7.8l-16.7-7.8V14.6L96,28.9V36.1z"/>
	<path class="st1" d="M137.9,52.1h-24.8c-8.1,0-12.5-4.4-12.5-12.2V16.8c0-7.9,4.8-11.9,12.9-11.9h24.4v11.9H115
		c-1.2,0-1.6,0.5-1.6,1.6v20.3c0,0.9,0.5,1.6,1.6,1.6h22.9V52.1z"/>
	<path class="st1" d="M185,39.8c0,8.5-4.4,12.2-12.9,12.2h-16.6c-9.1,0-13-4.7-13-12.2V17c0-8.2,4.8-12.2,13-12.2H172
		c9,0,12.9,3.8,12.9,12.2V39.8z M172.2,19c0-1.7-0.5-2.2-2.2-2.2h-12.7c-1.7,0-2.2,0.5-2.2,2.2v19c0,1.8,0.4,2.2,2.2,2.2H170
		c1.9,0,2.2-0.5,2.2-2.2V19z"/>
	<path class="st1" d="M233.5,39.9c0,8.2-4.1,12.2-12.9,12.2h-29.8V4.9h29.7c9.2,0,12.9,3.8,12.9,12.2V39.9z M220.7,19
		c0-1.8-0.5-2.3-2.3-2.3h-14.9v23.4h15c1.8,0,2.2-0.3,2.2-2.3V19z"/>
	<path class="st1" d="M279.2,52.1h-24.7c-8.1,0-12.4-4.4-12.4-12.2v-4.7H237V23.3h5.1v-6c0-8.6,5-12.4,12.4-12.4h24.7v11.9h-22.9
		c-1,0-1.4,0.4-1.4,1.4v5.1h18.1v11.9h-18.1v3.5c0,0.9,0.4,1.5,1.4,1.5h22.9V52.1z"/>
	<path class="st1" d="M330.1,52.1h-12.8v-9.9c0-1.6-0.5-2-2.4-2h-15.1v12h-12.7v-12H282V28.2h5.1V4.9h27.4c9.1,0,12.7,3.4,12.7,12.2
		V27c0,2.9-0.7,4.6-2.3,5.6c2.8,0.9,5.1,2.8,5.1,7.5V52.1z M314.5,19.2c0-2-0.6-2.5-2.3-2.5h-12.4v11.4h12.3c1.9,0,2.4-0.5,2.4-2.7
		V19.2z"/>
	<path class="st1" d="M380,52.1h-12.8V40.2h-17.1v11.9h-12.7V40.2h-5.1v-12h5.1V4.9h12.7v23.3h17.1V4.9H380V52.1z"/>
	<path class="st1" d="M425.1,20.3c0,8.9-6.5,13.8-13.5,18.4v13.4h-12.8V38.7c-7.1-4.6-13.5-9.8-13.5-18.3V4.9H398v13.5
		c0,3.8,2,6,7.1,10c4.9-3.8,7.2-6.1,7.2-10V4.9h12.8V20.3z"/>
	<path class="st1" d="M474.5,28.3c0,7.2-3.7,11.8-13.4,11.8h-16.6v11.9h-12.7V40.2h-5.1V28.3h5.1V4.9h29.5c9,0,13.2,3.6,13.2,11.9
		V28.3z M461.7,19c0-1.9-0.5-2.2-2.5-2.2h-14.7v11.5h14.5c2.3,0,2.7-0.3,2.7-2.1V19z"/>
	<path class="st1" d="M518.9,52.1h-24.7c-8.1,0-12.4-4.4-12.4-12.2v-4.7h-5.1V23.3h5.1v-6c0-8.6,5-12.4,12.4-12.4h24.7v11.9h-22.9
		c-1,0-1.4,0.4-1.4,1.4v5.1h18.1v11.9h-18.1v3.5c0,0.9,0.4,1.5,1.4,1.5h22.9V52.1z"/>
</g>
</svg>
