<?xml version="1.0" encoding="utf-8"?>
<!-- Generator: Adobe Illustrator 23.0.3, SVG Export Plug-In . SVG Version: 6.00 Build 0)  -->
<svg version="1.1" id="Layer_1" xmlns="http://www.w3.org/2000/svg" xmlns:xlink="http://www.w3.org/1999/xlink" x="0px" y="0px"
	 viewBox="0 0 410 49" style="enable-background:new 0 0 410 49;" xml:space="preserve">
<style type="text/css">
	.st0{fill-rule:evenodd;clip-rule:evenodd;fill:#006FFF;}
	.st1{fill-rule:evenodd;clip-rule:evenodd;fill:#BF25D6;}
	.st2{filter:url(#Adobe_OpacityMaskFilter);}
	.st3{fill-rule:evenodd;clip-rule:evenodd;fill:#FFFFFF;}
	.st4{mask:url(#mask-2_1_);fill-rule:evenodd;clip-rule:evenodd;fill:#BF25D6;}
</style>
<g id="Page-1">
	<g id="Group-22">
		<polygon id="Fill-1" class="st0" points="0,24.4 0,30.8 27.6,43.6 27.6,34.6 12.7,27.6 27.6,20.6 27.6,11.6 		"/>
		<polygon id="Fill-2" class="st0" points="41.8,0 31.1,48.1 42.4,48.1 53.1,0 		"/>
		<polygon id="Fill-3" class="st0" points="84.2,30.8 56.5,43.6 56.5,34.6 71.5,27.6 56.5,20.6 56.5,11.6 84.2,24.4 		"/>
		<g id="Group-21" transform="translate(88.000000, 2.081100)">
			<path id="Fill-4" class="st1" d="M33.5,43H11.4C4.2,43,0.2,39.1,0.2,32.1V11.5c0-7,4.3-10.6,11.5-10.6h21.8v10.6H13.1
				c-1,0-1.4,0.5-1.4,1.4V31c0,0.8,0.5,1.4,1.4,1.4h20.5V43z"/>
			<path id="Fill-6" class="st1" d="M64.1,13.5c0-1.5-0.5-2-2-2H51c-1.5,0-2,0.5-2,2v16.9c0,1.6,0.3,2,2,2h11.2c1.7,0,2-0.4,2-2
				V13.5z M75.6,32.1C75.6,39.6,71.6,43,64,43H49.2c-8.1,0-11.6-4.2-11.6-10.8V11.7c0-7.3,4.3-10.8,11.6-10.8H64
				c8,0,11.5,3.4,11.5,10.9V32.1z"/>
			<path id="Fill-8" class="st1" d="M107.5,13.5c0-1.6-0.4-2-2-2H92.1v20.9h13.3c1.6,0,2-0.3,2-2V13.5z M118.8,32.1
				c0,7.3-3.7,10.8-11.5,10.8H80.8V0.9h26.5c8.2,0,11.5,3.4,11.5,10.9V32.1z"/>
			<path id="Fill-10" class="st1" d="M156.8,43h-22.3c-7.3,0-11.1-3.9-11.1-10.8V12c0-7.7,4.5-11.1,11.1-11.1h22.3v10.6h-20.6
				c-0.9,0-1.3,0.3-1.3,1.4v4.4h16.4v10.6h-16.4V31c0,0.8,0.3,1.3,1.3,1.3h20.6V43z"/>
			<polygon id="Fill-12" class="st1" points="201.9,43 190.5,43 190.5,32.4 175.3,32.4 175.3,43 163.9,43 163.9,32.4 159.4,32.4 
				159.4,21.7 163.9,21.7 163.9,0.9 175.3,0.9 175.3,21.7 190.5,21.7 190.5,0.9 201.9,0.9 			"/>
			<path id="Fill-14" class="st1" d="M242.1,14.6c0,7.9-5.8,12.3-12.1,16.4V43h-11.4V31c-6.3-4.1-12.1-8.7-12.1-16.4V0.9H218v12
				c0,3.4,1.7,5.4,6.3,8.9c4.4-3.4,6.4-5.5,6.4-8.9v-12h11.4V14.6z"/>
			<path id="Fill-16" class="st1" d="M273.3,13.5c0-1.7-0.4-2-2.3-2h-12.9v10.3h12.6c2,0,2.5-0.3,2.5-1.9V13.5z M284.8,21.8
				c0,6.4-3.1,10.6-11.8,10.6h-14.8V43h-11.4V0.9h26.3c8.1,0,11.7,3.2,11.7,10.6V21.8z"/>
			<g id="Group-20" transform="translate(288.000000, 0.000000)">
				<g id="Clip-19">
				</g>
				<defs>
					<filter id="Adobe_OpacityMaskFilter" filterUnits="userSpaceOnUse" x="0.2" y="0.9" width="33.4" height="42.1">
						<feColorMatrix  type="matrix" values="1 0 0 0 0  0 1 0 0 0  0 0 1 0 0  0 0 0 1 0"/>
					</filter>
				</defs>
				<mask maskUnits="userSpaceOnUse" x="0.2" y="0.9" width="33.4" height="42.1" id="mask-2_1_">
					<g class="st2">
						<polygon id="path-1_1_" class="st3" points="0.2,0.9 33.6,0.9 33.6,43 0.2,43 						"/>
					</g>
				</mask>
				<path id="Fill-18" class="st4" d="M33.6,43H11.3C4.1,43,0.2,39.1,0.2,32.1V12c0-7.7,4.5-11.1,11.1-11.1h22.3v10.6H12.9
					c-0.9,0-1.3,0.3-1.3,1.4v4.4H28v10.6H11.7V31c0,0.8,0.3,1.3,1.3,1.3h20.6V43z"/>
			</g>
		</g>
	</g>
</g>
</svg>
