
<svg width="410px" height="49px" viewBox="0 0 410 49" version="1.1" xmlns="http://www.w3.org/2000/svg" xmlns:xlink="http://www.w3.org/1999/xlink">
    <defs>
        <polygon id="path-1" points="0.2403 0.8774 33.59 0.8774 33.59 42.9844 0.2403 42.9844"></polygon>
    </defs>
    <g id="Page-1" stroke="none" stroke-width="1" fill="none" fill-rule="evenodd">
        <g id="Group-22">
            <polygon id="Fill-1" fill="#006FFF" points="0 24.4183 0 30.7973 27.607 43.6153 27.607 34.5673 12.702 27.6083 27.607 20.6483 27.607 11.6003"></polygon>
            <polygon id="Fill-2" fill="#006FFF" points="41.76 0.0004 31.088 48.0814 42.398 48.0814 53.069 0.0004"></polygon>
            <polygon id="Fill-3" fill="#006FFF" points="84.1567 30.7979 56.5497 43.6149 56.5497 34.5679 71.4547 27.6079 56.5497 20.6489 56.5497 11.6009 84.1567 24.4179"></polygon>
            <g id="Group-21" transform="translate(88.000000, 2.081100)">
                <path d="M33.5088,42.9844 L11.4108,42.9844 C4.1608,42.9844 0.2168,39.0984 0.2168,32.1384 L0.2168,11.4914 C0.2168,4.4734 4.5088,0.8774 11.7008,0.8774 L33.5088,0.8774 L33.5088,11.4914 L13.0928,11.4914 C12.0498,11.4914 11.6428,11.9554 11.6428,12.8824 L11.6428,30.9784 C11.6428,31.7914 12.1068,32.3714 13.0348,32.3714 L33.5088,32.3714 L33.5088,42.9844 Z" id="Fill-4" fill="#BF25D6"></path>
                <path d="M64.1328,13.4629 C64.1328,11.9549 63.6688,11.4909 62.1608,11.4909 L50.9668,11.4909 C49.4588,11.4909 48.9948,11.9549 48.9948,13.4629 L48.9948,30.3989 C48.9948,31.9649 49.3428,32.3709 50.9668,32.3709 L62.1608,32.3709 C63.8428,32.3709 64.1328,31.9649 64.1328,30.3989 L64.1328,13.4629 Z M75.5588,32.0809 C75.5588,39.6199 71.6148,42.9839 64.0168,42.9839 L49.1688,42.9839 C41.0498,42.9839 37.5698,38.7499 37.5698,32.1389 L37.5698,11.7229 C37.5698,4.4149 41.8618,0.8769 49.1688,0.8769 L64.0168,0.8769 C72.0208,0.8769 75.5588,4.2989 75.5588,11.7809 L75.5588,32.0809 Z" id="Fill-6" fill="#BF25D6"></path>
                <path d="M107.4575,13.5215 C107.4575,11.9555 107.0515,11.4915 105.4275,11.4915 L92.1455,11.4915 L92.1455,32.3715 L105.4855,32.3715 C107.1095,32.3715 107.4575,32.0815 107.4575,30.3405 L107.4575,13.5215 Z M118.8255,32.1385 C118.8255,39.4465 115.1715,42.9845 107.3415,42.9845 L80.7785,42.9845 L80.7785,0.8765 L107.2835,0.8765 C115.4615,0.8765 118.8255,4.2415 118.8255,11.7815 L118.8255,32.1385 Z" id="Fill-8" fill="#BF25D6"></path>
                <path d="M156.8149,42.9844 L134.5439,42.9844 C127.2939,42.9844 123.4649,39.0984 123.4649,32.1384 L123.4649,11.9554 C123.4649,4.2414 127.9309,0.8774 134.5439,0.8774 L156.8149,0.8774 L156.8149,11.4914 L136.1669,11.4914 C135.2389,11.4914 134.8909,11.8384 134.8909,12.9414 L134.8909,17.2914 L151.2469,17.2914 L151.2469,27.9044 L134.8909,27.9044 L134.8909,31.0374 C134.8909,31.8484 135.2389,32.3714 136.1669,32.3714 L156.8149,32.3714 L156.8149,42.9844 Z" id="Fill-10" fill="#BF25D6"></path>
                <polygon id="Fill-12" fill="#BF25D6" points="201.938 42.9844 190.512 42.9844 190.512 32.3714 175.258 32.3714 175.258 42.9844 163.891 42.9844 163.891 32.3714 159.368 32.3714 159.368 21.6994 163.891 21.6994 163.891 0.8774 175.258 0.8774 175.258 21.6994 190.512 21.6994 190.512 0.8774 201.938 0.8774"></polygon>
                <path d="M242.1313,14.623 C242.1313,22.568 236.3323,26.919 230.0673,31.037 L230.0673,42.984 L218.6413,42.984 L218.6413,31.037 C212.3203,26.919 206.5783,22.337 206.5783,14.681 L206.5783,0.877 L218.0043,0.877 L218.0043,12.883 C218.0043,16.305 219.7443,18.277 224.3263,21.814 C228.7333,18.451 230.7053,16.363 230.7053,12.883 L230.7053,0.877 L242.1313,0.877 L242.1313,14.623 Z" id="Fill-14" fill="#BF25D6"></path>
                <path d="M273.2778,13.4629 C273.2778,11.7809 272.8718,11.4909 271.0158,11.4909 L258.1388,11.4909 L258.1388,21.7569 L270.7838,21.7569 C272.8128,21.7569 273.2778,21.4669 273.2778,19.8429 L273.2778,13.4629 Z M284.7598,21.7569 C284.7598,28.1369 281.6298,32.3709 272.9298,32.3709 L258.1388,32.3709 L258.1388,42.9839 L246.7718,42.9839 L246.7718,0.8769 L273.1038,0.8769 C281.1648,0.8769 284.7598,4.0669 284.7598,11.4909 L284.7598,21.7569 Z" id="Fill-16" fill="#BF25D6"></path>
                <g id="Group-20" transform="translate(288.000000, 0.000000)">
                    <mask id="mask-2" fill="white">
                        <use xlink:href="#path-1"></use>
                    </mask>
                    <g id="Clip-19"></g>
                    <path d="M33.5903,42.9844 L11.3193,42.9844 C4.0693,42.9844 0.2403,39.0984 0.2403,32.1384 L0.2403,11.9554 C0.2403,4.2414 4.7073,0.8774 11.3193,0.8774 L33.5903,0.8774 L33.5903,11.4914 L12.9423,11.4914 C12.0143,11.4914 11.6663,11.8384 11.6663,12.9414 L11.6663,17.2914 L28.0223,17.2914 L28.0223,27.9044 L11.6663,27.9044 L11.6663,31.0374 C11.6663,31.8484 12.0143,32.3714 12.9423,32.3714 L33.5903,32.3714 L33.5903,42.9844 Z" id="Fill-18" fill="#BF25D6" mask="url(#mask-2)"></path>
                </g>
            </g>
        </g>
    </g>
</svg>